<?xml version="1.0" encoding="UTF-8"?>
<svg width="1920" height="1080" version="1.1" viewBox="0 0 508 285.75" xml:space="preserve" xmlns="http://www.w3.org/2000/svg" xmlns:xlink="http://www.w3.org/1999/xlink"><defs><linearGradient id="a" x1="215.23" x2="111" y1="45.76" y2="265.56" gradientUnits="userSpaceOnUse"><stop stop-color="#3dffe5" offset="0"/><stop stop-color="#38e89f" offset=".5"/><stop stop-color="#4aff80" offset="1"/></linearGradient><linearGradient id="c" x1="-50.539" x2="-50.539" y1="42.508" y2="113.37" gradientTransform="matrix(1.2758 0 0 1.2758 278.56 4.0066)" gradientUnits="userSpaceOnUse"><stop stop-color="#ebebeb" offset=".59132"/><stop stop-color="#4a4a4a" offset="1"/></linearGradient><linearGradient id="b" x1="206.4" x2="206.4" y1="57.958" y2="293.46" gradientTransform="matrix(1.0362 0 0 1.0362 -63.913 -11.117)" gradientUnits="userSpaceOnUse"><stop stop-color="#ffa018" offset=".32763"/><stop stop-color="#eedd19" offset=".52854"/></linearGradient></defs><rect transform="scale(-1)" x="-508" y="-285.75" width="508" height="285.75" fill="#67eb8f" stroke-width=".26458" style="font-variation-settings:'wght' 700"/><g stroke-width=".29982"><path transform="rotate(180 256.12 145.26)" d="m254 142.88a74.04 74.04 135 0 1-74.04 74.04h-175.73v12.895h508v-160.97h-184.19a74.04 74.04 135 0 0-74.04 74.04z" fill-opacity=".36863" style="font-variation-settings:'wght' 700"/><path transform="rotate(180 254 142.88)" d="m254 142.88a74.04 74.04 135 0 1-74.04 74.04h-179.96v68.835h508v-216.91h-179.96a74.04 74.04 135 0 0-74.04 74.04z" fill="#fa6462" style="font-variation-settings:'wght' 700"/><rect x="254" y="102.28" width="254" height="183.47" display="none" style="font-variation-settings:'wght' 700"/></g><g transform="matrix(.51676 0 0 .51676 44.484 24.672)"><g transform="matrix(.94587 0 0 .94587 5.9039 5.6113)"><g transform="translate(.43162)"><path d="m124.24 53.587c-10.107 0.06241-20.216-0.04768-30.32 0.18961-2.8043 0.04108-5.6233 0.26566-8.32 1.0853-9.0658 2.575-16.752 9.5756-20.085 18.401-1.5983 4.0709-2.173 8.4809-2.033 12.835-0.18669 8.426-0.28523 16.854-0.35897 25.281-1.9963 0.0285-4.2017 0.0384-6.0664 0.11914-1.0302 0.046-1.9434 0.10975-3.0234 0.21289-3.8867 0.3427-7.7062 1.4056-11.162 3.2274-9.0753 4.6695-15.884 13.86-17.043 24.076-0.45909 6.4916-0.27507 13.005-0.33027 19.507-2e-3 10.435 0.0247 20.871 0.23633 31.305 0.0227 1.1613 0.10294 2.5729 0.27056 3.821 0.85858 7.2523 5.1483 14.209 11.718 17.594 5.5324 2.9474 11.926 3.6162 18.102 3.5545 0.85459-0.23703 0.91826 0.29645 0.8002 1.007-0.0987 11.834-1.0181 23.717 0.32305 35.515 0.52523 3.9867 2.0776 7.883 4.6261 10.988 3.9775 5.3067 9.5788 9.7425 16.191 11.08 4.426 0.80484 8.9421 0.3271 13.411 0.43673 54.278 0.0296 108.56 0.0114 162.83-7e-3 6.8083-0.25468 13.101-3.97 17.541-8.9887 3.0753-3.3727 5.6403-7.4075 6.4251-11.97 0.31846-1.5784 0.50872-3.2398 0.63087-4.743 0.11395-1.514 0.18236-2.9452 0.23415-4.4024 0.37499-9.5001-0.19582-19.003-0.24596-28.504-0.13928-0.75965 1.0123-0.2645 1.4944-0.42018 2.1022-0.0158 4.2059-0.0881 6.297-0.31395 0.36577-0.0523 1.1919-0.13693 1.7299-0.23064 5.3506-0.75129 10.621-2.914 14.474-6.7848 3.824-3.7006 6.0306-8.8324 6.6382-14.076 0.52348-4.2311 0.24589-8.5027 0.36995-12.753 0.119-13.324 0.22286-26.652-0.0598-39.974-0.72578-13.108-10.832-24.886-23.471-28.118-4.5649-1.1701-9.3116-1.1207-13.989-1.1393-0.0925-8.945-0.11218-17.987-0.41797-26.869-0.0736-2.7163-0.17744-5.4558-0.91862-8.0887-2.5974-9.8534-10.4-18.194-20.132-21.284-3.6401-1.2446-7.5132-1.4467-11.328-1.4459-13.172-0.08656-26.345-0.15908-39.518-0.13287-25.174 0.0084-50.348-0.01973-75.523 0.0099z" fill-opacity=".36863"/><path d="m116.66 44.926c-10.107 0.06241-20.216-0.04768-30.32 0.18961-2.8043 0.04108-5.6233 0.26566-8.32 1.0853-9.0658 2.575-16.752 9.5756-20.085 18.401-1.5983 4.0709-2.173 8.4809-2.0329 12.835-0.18669 8.426-0.28523 16.854-0.35897 25.281-1.9963 0.0285-4.2017 0.0384-6.0664 0.11914-1.0302 0.046-1.9434 0.10975-3.0234 0.21289-3.8867 0.3427-7.7062 1.4056-11.162 3.2274-9.0753 4.6695-15.884 13.86-17.043 24.076-0.45908 6.4916-0.27506 13.005-0.33026 19.507-0.0025 10.435 0.02472 20.871 0.23633 31.305 0.02269 1.1613 0.10294 2.5729 0.27056 3.821 0.85858 7.2523 5.1483 14.209 11.718 17.594 5.5324 2.9474 11.926 3.6162 18.102 3.5545 0.85459-0.23703 0.91826 0.29645 0.8002 1.007-0.09874 11.834-1.0181 23.717 0.32305 35.515 0.52523 3.9867 2.0776 7.883 4.6261 10.988 3.9775 5.3067 9.5788 9.7425 16.191 11.08 4.426 0.80484 8.9421 0.3271 13.411 0.43673 54.278 0.0296 108.56 0.0114 162.83-7e-3 6.8083-0.25468 13.101-3.97 17.541-8.9887 3.0753-3.3727 5.6403-7.4075 6.4251-11.97 0.31846-1.5784 0.50872-3.2398 0.63087-4.743 0.11395-1.514 0.18236-2.9452 0.23415-4.4024 0.37499-9.5001-0.19582-19.003-0.24596-28.504-0.13928-0.75965 1.0123-0.2645 1.4944-0.42018 2.1022-0.0158 4.2059-0.0881 6.297-0.31395 0.36577-0.0523 1.1919-0.13693 1.7299-0.23064 5.3506-0.75129 10.621-2.914 14.474-6.7848 3.824-3.7006 6.0306-8.8324 6.6382-14.076 0.52348-4.2311 0.24589-8.5027 0.36995-12.753 0.119-13.324 0.22286-26.652-0.0598-39.974-0.72578-13.108-10.832-24.886-23.471-28.118-4.5649-1.1701-9.3116-1.1207-13.989-1.1393-0.0925-8.945-0.11218-17.987-0.41797-26.869-0.0736-2.7163-0.17744-5.4558-0.91862-8.0887-2.5974-9.8534-10.4-18.194-20.132-21.284-3.6401-1.2446-7.5132-1.4467-11.328-1.4459-13.172-0.08656-26.345-0.15908-39.518-0.13287-25.174 0.0084-50.348-0.01973-75.523 0.0099z" fill="url(#a)"/><path transform="translate(-1.9676)" d="m161.99 255.18c-68.486-0.0243-84.653-1e-3 -85.584 0-6.542 8e-3 -11.668-5.8296-14.043-9.9241-2.8831-4.9717-1.3427-28.125-1.3575-38.41 0.07796-4.6116 0.20545-7.7046-3.1062-10.162-3.3116-2.4573-26.438 4.8738-27.781-14.638-0.18319-2.6622-0.46541-48.275 0-50.902 1.0832-6.1156 4.1633-10.901 9.381-14.574 3.9829-2.8039 7.9205-3.827 14.967-3.8049 13.002 0.0407 13.086-0.48423 13.051-9.0574-0.03171-7.8327 0.34214-30.034 0.51808-31.09 0.53066-3.1849 1.554-5.8428 3.1932-8.2936 3.4158-5.107 8.1442-8.115 14.377-9.1456 1.4486-0.23955 30.097-0.316 76.385-0.25185m0 200.25c68.486-0.0243 84.653-1e-3 85.584 0 6.542 8e-3 11.668-5.8296 14.043-9.9241 2.8831-4.9717 1.3427-28.125 1.3575-38.41-0.078-4.6116-0.20545-7.7046 3.1062-10.162 3.3116-2.4573 26.438 4.8738 27.781-14.638 0.18319-2.6622 0.46542-48.275 0-50.902-1.0832-6.1156-4.1633-10.901-9.381-14.574-3.9829-2.8039-7.9205-3.827-14.967-3.8049-13.002 0.0407-13.086-0.48423-13.051-9.0574 0.0317-7.8327-0.34214-30.034-0.51809-31.09-0.53066-3.1849-1.554-5.8428-3.1932-8.2936-3.4158-5.107-8.1442-8.115-14.377-9.1456-1.4486-0.23955-30.097-0.316-76.385-0.25185" fill="#893750"/></g><path transform="matrix(1.9393 0 0 2.1562 -166.47 -95.65)" d="m129.65 96.994q-1.6533 0-2.6667-0.90667-0.96-0.96-0.96-2.5067v-14.88q0-1.5467 0.90667-2.4 0.90666-0.90667 2.4-0.90667h4.8533q3.52 0 5.9733 1.44 2.4533 1.3867 3.7333 3.84 1.3333 2.4 1.3333 5.4933 0 3.2-1.3333 5.6533-1.3333 2.4533-3.6267 3.84-2.2933 1.3333-5.12 1.3333zm2.5067-4.2667h2.08q3.04 0 4.64-1.7067 1.6-1.76 1.5467-4.8533-0.0533-3.2-1.6533-4.8533-1.6-1.6533-4.5867-1.6533h-2.0267q-1.3333 0-1.3333 1.3333v10.4q0 1.3333 1.3333 1.3333zm24 4.8q-1.0133 0-1.7067-0.58667-0.69333-0.64-0.69333-1.6533v-5.6q0-0.58667-0.10667-1.12-0.0533-0.58667-0.42667-1.12l-5.9733-8.5867q-0.42667-0.69333-0.42667-1.28 0-1.0133 0.74666-1.7067 0.74667-0.74667 1.76-0.74667 1.28 0 1.92 1.0667l3.9467 6.24q0.48 0.74667 1.0133 0.74667t1.0133-0.74667l3.84-6.24q0.64-1.0667 1.92-1.0667 1.0667 0 1.76 0.74667 0.74666 0.69333 0.74666 1.7067 0 0.58667-0.42666 1.28l-5.9733 8.5867q-0.37334 0.53333-0.48 1.12-0.0533 0.53333-0.0533 1.12v5.6q0 1.0133-0.69333 1.6533-0.64 0.58667-1.7067 0.58667zm15.2 0q-1.0667 0-1.76-0.58667-0.64-0.64-0.64-1.6533v-17.333q0-1.3867 0.85333-2.08 0.85333-0.74667 1.92-0.74667 0.74667 0 1.44 0.37333 0.69333 0.32 1.1733 1.0667l7.68 11.573q0.21333 0.37333 0.64 0.37333 0.53333 0 0.53333-0.64l-0.37333-10.507q-0.0533-1.0667 0.64-1.6533 0.69333-0.58667 1.76-0.58667 1.0667 0 1.7067 0.58667 0.69333 0.58667 0.69333 1.6533v17.28q0 1.3333-0.85333 2.08t-1.92 0.74667q-0.69333 0-1.3867-0.37333-0.69334-0.32-1.1733-1.0667l-7.6267-11.947q-0.21333-0.37333-0.64-0.37333-0.58666 0-0.58666 0.69333l0.32 10.88q0.0533 1.0133-0.64 1.6533-0.69334 0.58667-1.76 0.58667zm21.867 0q-0.85333 0-1.6533-0.64-0.74667-0.64-0.74667-1.6533 0-0.42667 0.16-0.90667l6.72-17.547q0.37333-0.96 1.2267-1.44 0.85334-0.48 1.76-0.48 0.96 0 1.8133 0.48 0.90667 0.48 1.28 1.44l7.2 17.44q0.10667 0.21333 0.10667 0.42667 0 0.21333 0 0.42667 0 1.12-0.74667 1.76-0.74667 0.64-1.6533 0.64-0.64 0-1.28-0.37333-0.58667-0.32-0.85333-1.0667l-1.5467-4.16q-0.0533-0.32-0.42667-0.32h-7.2q-0.37334 0-0.48 0.32l-1.4933 4.2133q-0.37334 0.69333-0.96 1.0667-0.58667 0.37333-1.2267 0.37333zm6.08-10.133h3.1467q0.32 0 0.48-0.21333 0.21333-0.26667 0.10667-0.64l-1.3867-3.7867q-0.32-0.85333-0.8-0.85333t-0.8 0.90667l-1.3333 3.7867q-0.10667 0.32 0.0533 0.58667 0.16 0.21333 0.53334 0.21333z" fill="#fff" style="inline-size:183.094;white-space:pre" aria-label="DYNA"/><path transform="matrix(2.3994 0 0 2.7339 -260.08 -81.285)" d="m127.57 97.527q-1.0667 0-1.8133-0.8-0.69334-0.8-0.53334-1.8667l2.24-17.12q0.16-1.1733 0.96-1.8667 0.8-0.74667 1.92-0.74667 2.2933 0 2.9867 1.9733l3.6267 10.453q0.26667 0.53333 0.53333 0.53333 0.37333 0 0.53333-0.53333l3.6267-10.453q0.69333-1.9733 2.9333-1.9733 1.2267 0 1.9733 0.74667 0.8 0.69333 0.96 1.8667l2.24 17.12q0.16 1.0667-0.58667 1.8667-0.69333 0.8-1.76 0.8-0.96 0-1.6533-0.58667-0.64-0.64-0.74666-1.6l-0.8-11.147q-0.0533-0.64-0.42667-0.64-0.37333 0-0.53333 0.53333l-3.0933 8.6933q-0.74667 1.9733-2.6667 1.9733-0.74666 0-1.4933-0.53333-0.69333-0.53333-1.12-1.3867l-3.0933-8.64q-0.16-0.48-0.53333-0.48-0.32 0-0.42667 0.64l-0.85333 10.987q-0.0533 0.96-0.74667 1.6-0.69333 0.58667-1.6533 0.58667zm36.267 0q-3.1467 0-5.7067-1.4933-2.5067-1.5467-4-4.16-1.44-2.6133-1.44-5.76 0-3.2533 1.44-5.76 1.4933-2.56 4-4 2.5067-1.4933 5.7067-1.4933 3.2 0 5.6533 1.4933 2.5067 1.44 3.8933 4 1.44 2.5067 1.44 5.76 0 3.2-1.44 5.8133-1.44 2.56-3.9467 4.1067-2.4533 1.4933-5.6 1.4933zm0-4.2667q2.72 0 4.4267-2.0267 1.76-2.0267 1.76-5.12 0-3.0933-1.76-5.0667-1.7067-1.9733-4.4267-1.9733-2.7733 0-4.5867 1.9733-1.76 1.9733-1.76 5.0667 0 3.0933 1.76 5.12 1.8133 2.0267 4.5867 2.0267zm21.12 4.2667q-1.0133 0-1.7067-0.58667-0.69333-0.64-0.69333-1.6533v-13.92q0-1.6-1.6-1.6h-2.6133q-0.96 0-1.6-0.58667-0.58667-0.64-0.58667-1.6 0-0.96 0.58667-1.5467 0.64-0.64 1.6-0.64h13.173q1.0133 0 1.6 0.64 0.64 0.58667 0.64 1.5467 0 0.96-0.64 1.6-0.58666 0.58667-1.6 0.58667h-2.56q-1.6 0-1.6 1.6v13.92q0 1.0133-0.69333 1.6533-0.64 0.58667-1.7067 0.58667zm14.4 0q-1.0133 0-1.7067-0.64-0.69334-0.64-0.69334-1.6v-17.867q0-1.0133 0.69334-1.6533 0.69333-0.64 1.7067-0.64 1.0667 0 1.7067 0.64 0.69333 0.64 0.69333 1.6533v17.867q0 1.0133-0.69333 1.6533-0.64 0.58667-1.7067 0.58667zm15.733 0q-0.90666 0-1.76-0.48-0.85333-0.48-1.2267-1.44l-6.4533-17.28q-0.16-0.48-0.16-0.90667 0-1.0133 0.74666-1.6533 0.74667-0.64 1.7067-0.64 0.64 0 1.28 0.37333 0.69333 0.32 0.90666 1.0667l4.32 12.747q0.32 0.90667 0.8 0.90667t0.8-0.85333l4.5867-12.747q0.26666-0.74667 0.85333-1.0667 0.64-0.37333 1.28-0.37333 1.1733 0 1.8133 0.8 0.64 0.8 0.64 1.7067 0 0.16 0 0.37333 0 0.16-0.10667 0.37333l-6.9333 17.173q-0.37333 0.96-1.28 1.44-0.85333 0.48-1.8133 0.48z" fill="#fefefe" style="inline-size:183.094;white-space:pre" aria-label="MOTIV"/><path transform="matrix(1.8935 0 0 2.085 -164.34 39.638)" d="m126.83 97.527q-0.85333 0-1.6533-0.64-0.74667-0.64-0.74667-1.6533 0-0.42667 0.16-0.90667l6.72-17.547q0.37333-0.96 1.2267-1.44 0.85334-0.48 1.76-0.48 0.96 0 1.8133 0.48 0.90666 0.48 1.28 1.44l7.2 17.44q0.10667 0.21333 0.10667 0.42667 0 0.21333 0 0.42667 0 1.12-0.74667 1.76-0.74667 0.64-1.6533 0.64-0.64 0-1.28-0.37333-0.58667-0.32-0.85333-1.0667l-1.5467-4.16q-0.0533-0.32-0.42667-0.32h-7.2q-0.37333 0-0.48 0.32l-1.4933 4.2133q-0.37334 0.69333-0.96 1.0667-0.58667 0.37333-1.2267 0.37333zm6.08-10.133h3.1467q0.32 0 0.48-0.21333 0.21334-0.26667 0.10667-0.64l-1.3867-3.7867q-0.32-0.85333-0.8-0.85333t-0.8 0.90667l-1.3333 3.7867q-0.10667 0.32 0.0533 0.58667 0.16 0.21333 0.53334 0.21333zm20.587 10.133q-1.0133 0-1.7067-0.58667-0.69333-0.64-0.69333-1.6533v-13.92q0-1.6-1.6-1.6h-2.6133q-0.96 0-1.6-0.58667-0.58667-0.64-0.58667-1.6 0-0.96 0.58667-1.5467 0.63999-0.64 1.6-0.64h13.173q1.0133 0 1.6 0.64 0.64 0.58667 0.64 1.5467 0 0.96-0.64 1.6-0.58667 0.58667-1.6 0.58667h-2.56q-1.6 0-1.6 1.6v13.92q0 1.0133-0.69333 1.6533-0.64 0.58667-1.7067 0.58667zm14.4 0q-1.0133 0-1.7067-0.64t-0.69333-1.6v-17.867q0-1.0133 0.69333-1.6533 0.69333-0.64 1.7067-0.64 1.0667 0 1.7067 0.64 0.69333 0.64 0.69333 1.6533v17.867q0 1.0133-0.69333 1.6533-0.64 0.58667-1.7067 0.58667zm17.547 0q-3.1467 0-5.7067-1.4933-2.5067-1.5467-4-4.16-1.44-2.6133-1.44-5.76 0-3.2533 1.44-5.76 1.4933-2.56 4-4 2.5067-1.4933 5.7067-1.4933t5.6533 1.4933q2.5067 1.44 3.8933 4 1.44 2.5067 1.44 5.76 0 3.2-1.44 5.8133-1.44 2.56-3.9467 4.1067-2.4533 1.4933-5.6 1.4933zm0-4.2667q2.72 0 4.4267-2.0267 1.76-2.0267 1.76-5.12 0-3.0933-1.76-5.0667-1.7067-1.9733-4.4267-1.9733-2.7733 0-4.5867 1.9733-1.76 1.9733-1.76 5.0667 0 3.0933 1.76 5.12 1.8133 2.0267 4.5867 2.0267zm17.12 4.2667q-1.0667 0-1.76-0.58667-0.64-0.64-0.64-1.6533v-17.333q0-1.3867 0.85334-2.08 0.85333-0.74667 1.92-0.74667 0.74666 0 1.44 0.37333 0.69334 0.32 1.1733 1.0667l7.68 11.573q0.21334 0.37333 0.64 0.37333 0.53334 0 0.53334-0.64l-0.37334-10.507q-0.0533-1.0667 0.64-1.6533 0.69333-0.58667 1.76-0.58667t1.7067 0.58667q0.69333 0.58667 0.69333 1.6533v17.28q0 1.3333-0.85333 2.08-0.85334 0.74667-1.92 0.74667-0.69334 0-1.3867-0.37333-0.69333-0.32-1.1733-1.0667l-7.6267-11.947q-0.21334-0.37333-0.64-0.37333-0.58667 0-0.58667 0.69333l0.32 10.88q0.0533 1.0133-0.64 1.6533-0.69333 0.58667-1.76 0.58667z" fill="#fff" style="inline-size:183.094;white-space:pre" aria-label="ATION"/></g></g><path d="m388.91 228.03c8.4038-2.1584 16.773-4.1876 25.221-6.2736 9.8174-2.6334 20.068-4.6693 29.693-7.596 6.793-2.5851 15.034-3.6992 18.989-6.0343 6.5305-1.5266 14.064-8.2382 19.069-7.2134-4.5588 2.3603 4.9848-1.6286 0.34621 1.3142 5.2935-2.1017 1.0729 1.9559 4.6092 0.21114 4.0885 1.8131 5.727 2.0558 3.0821-0.63984 3.9848 2.488 6.2156 1.9617 0.89909-0.19494-9.1214-5.3116 9.6572 4.5194 2.0036-0.11621-3.1066-1.6614-8.4754-4.7113-4.9602-3.9924-3.6472-2.6486 4.5164 2.4875 2.3-0.12231 2.3629 1.9545 9.4237 5.5357 4.5654 2.0983-2.5252-1.1166-2.8517-1.7792-0.12562-0.88202-1.137-1.3571-6.427-5.5697-0.76199-2.1119 4.1906 1.5718 3.0847 1.3227 1.8125-0.91888 3.2284 2.6081 10.011 4.6865 6.2807 2.4882 4.732 0.77284 7.8358 1.8573 1.6881-0.386-3.6345-1.7344 6.4847 1.163 0.0262-0.8802 0.0311-1.7158-3.8786-4.0652 1.9348-1.8219 1.6743-0.72-5.3064-2.8511-3.729-3.1254 6.282 2.7744-7.1122-6.6732 0.58487-1.61 2.3228 1.7178-0.4251-0.0514 3.5202 0.54209-4.326-2.6785-1.0231-1.2448-0.96442-1.9248-1.9465-1.6883-1.1618-2.2722-2.5297-4.227-4.0852-3.416-4.642-5.6629-7.5132-8.87-1.9453-2.2008-5.6814-6.7284-3.8814-7.0604-1.348-2.4278-4.1592-3.2676-5.5974-3.432-1.4988-1.4435-5.9815-6.9824-4.2493-6.4937 0.78925 1.7371 6.8528 7.131 3.48 2.3172-1.2849-2.5296-7.0944-7.3955-1.6149-5.7918-4.8782-3.695-5.3765-7.5736 0.94308-10.39-1.9848-1.2848 3.7144-3.2202-0.85203-1.9162-3.8644 2.6275-2.5784 0.68989-2.5682 4.7e-4 -3.6337 1.2463-2.2931 0.11106-2.7503-0.17626 4.379-0.0273 5.9317-3.8021 1.9776-1.0089-1.102-0.10468-5.7554 0.1459-2.2313-0.81824-6.97 1.3886 3.0411-2.8094-3.1925-0.35495-3.4107 1.0585-14.038 2.018-5.6156 0.39191-1.3522-0.57959-10.9 0.84871-2.1299-0.54003 5.859-1.0164 6.1817 0.58404 8.9411-1.1973-6.8362-0.0953 9.0213-3.0239-1.4109-1.7706-2.251 1.7348-0.859-0.0924-4.766 0.64899 3.6654-0.98347-177.92 62.238-176.7 65.351-1.163 3.7752 1.3603 4.7367-6.813 5.9068-0.48082 1.1151 9.983-3.0817 7.1949 1.0322-3.592 0.90236-19.194 5.1682-8.5016 2.6634 3.1726 0.0237-2.8655 1.0673 0.74363 1.1625-7.5549 3.391 9.3686-2.1637 5.911 0.72923 2.8089 0.1805-1.5716 0.49245 2.6945 0.94813-2.47 0.9901 4.0032 0.12596-2.1126 1.3921-4.4836 1.6955 6.1293-0.68264-1.0199 1.2631-4.0192 1.0883 16.855-3.53 5.0462-0.37119-2.8924 0.62346-5.0077 1.1595-4.0021 2.2712 3.6872-1.8397 9.9387-1.1964 2.1752 0.10522-1.2042 1.6264 5.9283 0.17586-1.485 1.4962-8.7327 1.0346 6.5421 0.18893 0.0652 1.2206 6.3073 0.01-3.5771 2.2855 2.6516 1.2706 5.3233-0.37015-11.158 4.3533-1.0631 2.2886 3.0143-1.5312 16.541-2.764 9.2254-0.20564 4.9549-0.99522 8.4435-2.1198 2.5063 0.29663-4.8618 1.0331-10.346 3.0949-2.0151 1.2306 4.9017-0.52542 11.617-1.9346 13.621-1.2351 7.0608-1.6055 3.6335-0.53761-0.86779 0.79529 3.3808-0.66277 2.8741 0.0278 7.139-0.58248-8.5311 1.3771 8.9812-0.20651 0.0365 0.98577-6.1395 2.004 11.109-1.9117 1.4656 0.54912-1.0215 0.47011 3.3833 0.16892-1.7065 0.94412 0.63995 0.78231 6.969-0.42263 0.21967 1.1366-1.3019 1.4704 16.85-2.2756 6.5906 0.53636 4.981-0.96021 3.8828 0.42191-0.0173 0.77739 4.2036-0.3835 16.854-2.0839 6.0275 0.38033-4.1924 0.97291-4.1351 2.2448-0.60935 0.90709 2.5711 1.7079-18.88 4.0575-5.9351 2.9161 13.095-3.2406 26.962-5.2867 40.677-7.458-4.8942 1.0235-11.647 1.7496-8.565 2.6574-4.3282 1.0052-14.119 3.307-4.2049 1.4114 10.715-0.78667 20.803-3.1478 31.106-4.8928z" fill-opacity=".37005" stroke-width=".36185"/><path d="m441.46 127.66c-0.40011 0.02041-0.94069 0.07442-1.6619 0.17311-3.7142 0.42323-4.4117 0.68447-2.4417 1.1787-8.34-0.0689-14.615 0.61692-21.802 2.1622-7.6365 1.1832-12.91 3.3492-20.354 4.2866-4.5844 1.7466-10.954 0.80393-3.176-0.60979 6.6664-1.6289 17.561-3.9871 21.186-4.8844 7.2199-2.2419-8.2351 1.192-11.077 1.9508-9.7573 1.8484-21.454 5.9579-29.456 6.9644-3.7921 1.1332 2.5813-1.9426-2.2009-0.33073 1.4586-1.2785 4.3368-3.577-0.90641-1.5482-1.0271-0.51728-6.5702 1.4839-6.2606 0.43357-5.1903 3.1749 0.59037-2.2038-3.4101-0.59687-1.7442-0.87492-3.7613 0.86602-8.1013 1.7358-2.1099-1.4024 1.9679-4.0797-2.7812-1.1172-5.0171 3.776-10.013 2.8437-14.2 7.967-6.4426 4.189-7.2128 4.866-11.499 6.2218-2.9955 0.94754-6.5528 4.0993-9.4754 1.1911-2.8973-5.2735-5.3331-4.0508-9.3359-7.9328 0.60873-3.3344-3.8244-4.6583-1.7276-0.62063-2.0714 2.2834 3.8795 0.22591-0.35863 3.4168 0.84794 3.4481 1.1503-1.1532 3.2096 1.5658-2.2379-1.4511-1.8946 4.3478-4.5909 0.34313 0.74616-1.3378-1.994-6.8906-1.9668-2.0438-1.4217 3.3523-2.4469-0.84587-3.1476 0.30954-1.0099 0.94795-0.01086-1.7316-2.6469 0.75551-0.93357 2.5279-4.5246 5.9566-4.5527 3.8948-0.1311 2.7364-2.8219 9.3646-3.421 2.6732-1.0821-1.8122-0.38167 5.5526-2.2624 0.48679-0.13525-3.2954-1.5472-3.7314-0.35864-0.11627-1.7539 6.029 0.45028 11.373 0.29507 17.459-6.1685 1.6517-13.309-1.4128-20.111-0.04031 4.136 0.30165 13.999 1.9487 13.601 2.8412-5.3882-0.16883-8.4204-0.38397-0.86093 0.90021 2.1362 0.85487-8.6216-1.1518-2.3647 0.46612 0.64653 1.2516-0.43868 1.2032-0.29611 1.9203 3.1623 0.87354 7.5836 2.8459 1.3245 1.8893-1.4632 0.93606 1.6698 1.9817 6.581 2.882-5.5876-0.11272-1.4308 0.32842-6.4234 0.19172 7.3424 1.4181 5.4357 2.6311 1.3296 2.1125 4.8923 1.1105 7.6822 2.2656 5.5072 2.2531 1.0077 0.39293-6.6592-0.4105 0.05116 0.63975 1.2119 0.96101-4.0523 0.25555 1.6247 1.325-0.27636 1.8178-0.25679 0.52638 2.9254 1.3245 1.1701 2.7555 1.9408 4.9447 3.1564 8.0569-1.163 3.7752 1.3603 4.737-6.813 5.9071-0.48082 1.1151 9.983-3.082 7.1949 1.032-3.592 0.90236-19.194 5.1681-8.5018 2.6634 3.1726 0.0237-2.8655 1.0676 0.74363 1.1627-7.5549 3.391 9.3683-2.1638 5.9108 0.72915 2.8089 0.1805-1.5712 0.49258 2.6949 0.94826-2.47 0.9901 4.0032 0.1255-2.1125 1.3916-4.4836 1.6955 6.129-0.68222-1.0201 1.2635-4.0192 1.0883 16.855-3.5304 5.0462-0.37155-2.8924 0.62346-5.0079 1.1594-4.0023 2.2712 3.6872-1.8397 9.9386-1.1962 2.1751 0.10542-1.2042 1.6264 5.9286 0.17569-1.4847 1.496-8.7327 1.0346 6.542 0.18894 0.06511 1.2206 6.3073 0.01-3.5772 2.2856 2.6515 1.2707 5.3233-0.37015-11.158 4.3534-1.063 2.2888 3.0143-1.5312 16.541-2.764 9.2253-0.20567 4.9549-0.99522 8.4435-2.1198 2.5063 0.29662-4.8618 1.0331-10.346 3.0946-2.0149 1.2304 4.9017-0.52542 11.617-1.9346 13.62-1.2351 7.0608-1.6055 3.6336-0.5376-0.86765 0.7953 3.3808-0.66277 2.8741 0.02788 7.1391-0.5824-8.5311 1.3771 8.9814-0.20629 0.03669 0.98599-6.1395 2.004 11.109-1.912 1.4656 0.5488-1.0215 0.47011 3.383 0.16893-1.7069 0.94413 0.63995 0.78231 6.9695-0.42239 0.22014 1.1369-1.3019 1.4704 16.85-2.2756 6.5903 0.53641 4.981-0.96021 3.883 0.42173-0.01705 0.77721 4.2036-0.3835 16.853-2.0839 6.027 0.38034-4.1924 0.97291-4.1351 2.2446-0.60927 0.90692 2.5711 1.7079-18.88 4.0575-5.935 2.9161 13.095-3.2406 26.962-5.2866 40.677-7.4579-4.8942 1.0235-11.648 1.75-8.5654 2.6577-4.3282 1.0052-14.12 3.3068-4.2049 1.4113 10.715-0.78667 20.803-3.1478 31.106-4.8927l-5.2e-4 -5.2e-4c8.4038-2.1584 16.773-4.1876 25.221-6.2735 8.3127-2.2298 16.915-4.0616 25.206-6.3381 0.66592 0.24109 1.365 0.39345 2.0676 0.43304 2.17 0.21896 4.5028-0.45291 5.9774-2.1187 0.28567-0.30307 0.53085-0.6361 0.74724-0.98599 1.3885-0.40729 2.7498-0.77055 4.1171-1.1281 0.25523 1.4503 0.94547 2.8632 2.2634 3.5941 1.5186 0.8251 3.3691 0.81707 5.0085 0.39533 0.41358-0.1778 0.97354-0.17793 1.2247-0.59583 0.20262-0.4908 0.03686-1.0507 0.09044-1.5694v-3.8535c-0.74345 0.18654-1.4704 0.55825-2.2552 0.48731-0.01148-0.07398-0.00329-0.1495-0.01137-0.22376 1.6522-0.52116 3.1406-1.0731 4.2473-1.7265 6.5305-1.5266 14.064-8.2384 19.069-7.2135-4.5588 2.3603 4.9848-1.6287 0.34623 1.3141 5.2935-2.1017 1.0732 1.9561 4.6095 0.21136 4.0885 1.8131 5.7268 2.0558 3.082-0.63976 3.9848 2.488 6.2156 1.9619 0.89917-0.19482-9.1214-5.3116 9.6572 4.5193 2.0035-0.11627-3.1066-1.6614-8.4756-4.7114-4.9604-3.9925-3.6472-2.6486 4.5166 2.4873 2.3001-0.12247 2.3629 1.9545 9.4234 5.536 4.5651 2.0986-2.5252-1.1166-2.8517-1.7794-0.12558-0.88212-1.137-1.3571-6.4267-5.5698-0.76171-2.112 4.1906 1.5718 3.0844 1.3228 1.8123-0.91881 3.2284 2.6081 10.011 4.6866 6.2808 2.4882 4.732 0.77284 7.836 1.8573 1.6883-0.38602-3.6345-1.7344 6.4849 1.1631 0.02635-0.88005 0.0311-1.7158-3.8787-4.0655 1.9348-1.8221 1.6743-0.72-5.3064-2.851-3.729-3.1254 6.282 2.7744-7.1127-6.6734 0.58446-1.6102 2.3228 1.7178-0.42464-0.05141 3.5207 0.54208-4.326-2.6785-1.0235-1.2445-0.9648-1.9244-1.9465-1.6883-1.1616-2.2723-2.5296-4.2271-4.0852-3.416-4.6421-5.6631-7.5132-8.8703-1.9453-2.2008-5.6814-6.728-3.8814-7.06-1.348-2.4278-4.1589-3.2674-5.5971-3.4318-1.4988-1.4435-5.9815-6.9828-4.2494-6.4942 0.78925 1.7371 6.8527 7.131 3.4799 2.3172-1.2849-2.5296-7.0944-7.3951-1.6149-5.7914-4.8782-3.695-5.3764-7.5737 0.94309-10.391-1.9848-1.2848 3.7143-3.2202-0.85214-1.9162-3.8644 2.6275-2.5785 0.68994-2.5683 5.2e-4 -3.6337 1.2463-2.293 0.1111-2.7502-0.17622 4.379-0.0273 5.9317-3.8025 1.9776-1.0092-1.102-0.10468-5.7554 0.1461-2.2314-0.81804-6.97 1.3886 3.0411-2.8095-3.1926-0.35502-3.4107 1.0585-14.038 2.0178-5.6157 0.39171-1.3522-0.57959-10.9 0.84872-2.1296-0.54002 5.859-1.0164 6.1817 0.58401 8.9411-1.1973-6.8362-0.0953 9.0215-3.0237-1.4108-1.7704-2.251 1.7348-0.85917-0.09233-4.7661 0.64906 3.6654-0.98347-7.753-0.47641-9.6464 0.28525-4.9027-0.86261-0.33858 1.4327-6.7887 1.047-5.4783-0.0401 7.9959-1.7158 0.66559-1.0697-2.8383 0.67574-6.8022 1.209-4.3424-0.30541-7.8566-0.0808-21.738 2.5272-25.839 1.2681-5.5345 2.2858-11.566 1.4502-16.657 4.0742 0.60494-2.0685 4.2646-1.5023 8.2961-2.8086 8.1431-1.807 16.576-2.576 25.127-2.8696 6.968 1.0742 13.738-2.0856 3.9662-1.6402-5.3498 0.25382-14.22 0.92696-21.712 1.9001-6.7627 0.37084 13.702-3.3348 3.6225-1.8624-3.3299 0.7-18.204 1.9794-8.5375 0.11317-0.77341-0.48226 7.2866-1.211 8.3783-1.4924 2.4198-0.63317 18.254-2.5053 17.053-1.9218 4.848-0.3022 14.56-0.91577 3.8871-0.64079-3.0047 0.5113 1.066-1.0007-1.7348-0.85783zm-165.7 58.532c-1.0541-0.23927-2.0906-0.48205-3.3249-0.70435 1.1879 0.36996 2.306 0.57569 3.3249 0.70435z" stroke-width=".36185"/><g transform="matrix(.51907 0 0 .51907 306.02 102.21)"><g transform="matrix(1.0881 0 0 1.0881 -13.603 -2.4905)"><path d="m167.66 79.073v49.591h11.834c-9e-3 -6.0158 0.0176-12.032-0.0133-18.048-0.0597-1.5057-0.11944-3.0113-0.17917-4.517 2.2938 7.5216 4.5878 15.043 6.8814 22.565h9.094c2.3198-8.1547 4.6373-16.31 6.9562-24.465-0.10342 3.2292-0.30448 6.4565-0.25297 9.6886v14.776h11.802v-50.808h-14.118c-2.9773 10.015-5.9525 20.03-8.929 30.045-2.9866-10.015-5.9732-20.03-8.9598-30.045h-14.116v1.2162zm75.239 10.55c-1.8563 0.04359-3.639 0.91106-4.9004 2.259-0.0355-0.53288-0.0713-1.0657-0.10688-1.5986h-11.126v38.381h11.735v-24.776c0.4263-1.1711 1.4653-2.073 2.695-2.2977 1.3431-0.25432 2.7317-0.11279 4.0736 0.0832 0.51673 0.0976 1.0333 0.19607 1.55 0.29401 0.057-3.8698 0.11106-7.7397 0.16746-11.61-1.3045-0.48881-2.6921-0.7631-4.088-0.73518zm10.638 26.714c-1.9174 0.0296-3.8385 0.87981-5.0011 2.4322-1.9047 2.417-1.7159 6.2583 0.49862 8.422 1.6887 1.7373 4.3372 2.1363 6.6282 1.65 2.4452-0.48487 4.4411-2.6156 4.7597-5.0881 0.32394-2.0375-0.30124-4.2489-1.8382-5.666-1.3152-1.3154-3.226-1.8312-5.0472-1.7501z" fill="url(#c)" stroke-width="1.2758" style="font-variation-settings:'wght' 700;white-space:pre"/><path d="m189.68 143.35c-2.535 0.0439-5.1412 0.85984-6.9789 2.6652-1.8437 1.7647-2.7986 4.2793-3.0213 6.7874-0.1188 1.1164-0.0816 2.2406-0.0877 3.3612h-3.5613v7.6686h3.5613v23.504h9.5582v-23.504h4.5606v-7.6686h-4.5606c0.0488-1.1714-0.17891-2.443 0.40861-3.5168 0.46157-0.84878 1.5125-1.0555 2.3988-0.9734 0.84032 1e-3 1.6331 0.29987 2.4371 0.50446 0.0362-2.6835 0.0731-5.367 0.10803-8.0506-1.5631-0.47141-3.18-0.83628-4.823-0.77748zm-53.324 2.1598c-3.6871 0.0642-7.3826 1.8128-9.5392 4.8455-1.5086 2.0418-2.1159 4.6224-2.0712 7.1322 0.0713 0.22655-0.19389 0.78484 0.18736 0.70592h9.353c0.02-1.1722-0.0385-2.465 0.72056-3.4456 0.84849-1.1795 2.8075-1.3447 3.7694-0.22041 0.88776 1.0491 0.99007 2.5167 0.93391 3.8334-0.0778 1.2249-0.31134 2.6186-1.3513 3.4093-0.98877 0.67142-2.2369 0.41118-3.3572 0.46494h-3.0738v8.1007c1.7322 0.0163 3.4666-0.0333 5.1974 0.0262 1.0733 0.0704 2.1356 0.68614 2.548 1.7111 0.55253 1.2472 0.58881 2.6584 0.49392 3.9988-0.12383 1.3246-0.72793 2.7872-2.041 3.3187-1.0135 0.4114-2.2974 0.2727-3.0497-0.57694-0.96352-0.95721-1.1815-2.3775-1.1555-3.6786-7e-3 -0.30507 0.0847-0.71127-0.35938-0.56865h-9.173c-0.0238 2.0524 0.10727 4.1546 0.88997 6.0767 0.83494 2.1091 2.3104 3.9639 4.2268 5.1881 2.8348 1.8617 6.3957 2.36 9.7085 1.8621 3.4156-0.47514 6.7045-2.3271 8.5921-5.2566 1.5716-2.3844 2.1209-5.3162 1.9294-8.1355-0.1499-2.6332-1.1428-5.291-3.0977-7.1157-0.43713-0.41886-0.91777-0.7927-1.4301-1.1153 2.49-1.9555 4.0344-5.0601 4.0473-8.2312 0.04-2.7064-0.55306-5.5125-2.1888-7.7203-1.5775-2.2397-4.0981-3.6782-6.7487-4.2424-1.2979-0.28923-2.6331-0.39323-3.961-0.36664zm72.22 0c-3.6702 0.0646-7.3496 1.7962-9.5089 4.8057-1.5298 2.047-2.1467 4.646-2.1005 7.1719 0.0713 0.22655-0.19388 0.78484 0.18736 0.70592h9.3559c0.0156-1.1599-0.0433-2.4358 0.69495-3.4133 0.83432-1.2087 2.8215-1.387 3.7922-0.2527 0.89767 1.0633 0.99284 2.5507 0.93142 3.8828-0.084 1.222-0.32784 2.6224-1.3904 3.3858-0.98483 0.64099-2.21 0.38483-3.3157 0.43915h-3.0738v8.1007c1.7322 0.0163 3.4665-0.0333 5.1974 0.0262 1.0746 0.0696 2.1353 0.68838 2.549 1.7131 0.54844 1.2445 0.58743 2.6513 0.49327 3.9882-0.12257 1.3279-0.72554 2.7935-2.0413 3.3275-1.0142 0.4116-2.2989 0.27266-3.0512-0.57836-0.97452-0.96899-1.1831-2.409-1.1543-3.7237 0.0316-0.34488 0.0237-0.64942-0.40657-0.52215h-9.1255c-0.0244 2.0525 0.10703 4.1547 0.88997 6.0767 0.83877 2.1258 2.3334 3.9894 4.268 5.2153 2.8433 1.849 6.4044 2.3342 9.7162 1.8282 3.366-0.48272 6.6039-2.2987 8.4904-5.1699 1.6193-2.4124 2.1826-5.3993 1.9786-8.2657-0.15773-2.6166-1.1529-5.2519-3.0941-7.0654-0.4371-0.41911-0.91774-0.793-1.431-1.1144 2.477-1.946 4.0196-5.028 4.047-8.1828 0.049-2.7224-0.54315-5.5479-2.1876-7.7696-1.5589-2.2118-4.0381-3.645-6.6533-4.2213-1.3282-0.3048-2.6965-0.41515-4.0573-0.38772zm-181.62 1.5492c0.0051 9.193-0.01029 18.386 0.0077 27.579 0.06695 2.9615 0.67807 6.0493 2.5102 8.4514 1.4362 1.9544 3.5681 3.3231 5.8806 4.0046 2.8575 0.86809 5.9208 0.98022 8.8605 0.50922 2.62-0.44273 5.226-1.5021 7.0773-3.4644 1.8573-1.9028 2.917-4.4666 3.2603-7.0806 0.32775-2.2907 0.16223-4.611 0.20311-6.916v-24.071h-9.8553c-0.0053 9.5052 0.01066 19.011-8e-3 28.516-0.06163 1.3582-0.15924 2.8582-1.0764 3.9424-0.69434 0.71864-1.7748 0.78958-2.7157 0.83625-0.99719 2e-3 -2.0795-0.0413-2.9415-0.59722-1.0287-0.82239-1.2042-2.2347-1.3038-3.4632-0.09199-2.0034-0.02175-4.011-0.04376-6.0161v-23.218h-9.8553v0.98775zm232.4 2.8871v6.2178h-3.4272v7.6686h3.4272c9e-3 5.0438-0.0174 10.088 0.0132 15.131 0.0664 2.2925 0.58198 4.7037 2.1282 6.475 1.3066 1.5651 3.3626 2.2666 5.3442 2.3994 1.9491 0.14265 3.9381-0.10411 5.7511-0.85413 0.41574-0.0217 0.3984-0.34594 0.36903-0.67856v-7.378c-0.90325 0.26519-1.807 0.60657-2.7654 0.54992-0.40887-0.0166-1.0061 0.0228-1.1399-0.47883-0.32552-1.0663-0.14982-2.2007-0.1962-3.2977v-11.868h3.9394v-7.6686h-3.9394v-7.2056h-9.5042v0.98775zm-181.4 5.6815c-2.0765 0.0318-4.1253 0.80036-5.7085 2.1443-0.04414-0.53601-0.08861-1.072-0.13312-1.608h-8.9679c1e-6 10.391 0 20.781 0 31.172h9.5582v-21.977c0.48735-0.85329 1.3981-1.5384 2.4217-1.4419 0.74287-7e-3 1.6072 0.27169 1.8718 1.0406 0.55513 1.4353 0.3531 3.0088 0.39645 4.5124v17.865h9.5582c-7e-3 -6.785 0.01406-13.57-0.01061-20.355-0.07196-2.7158-0.45743-5.5474-1.9303-7.8895-1.0448-1.6789-2.8007-2.8694-4.7371-3.2543-0.75968-0.16838-1.5417-0.22759-2.3188-0.20957zm30.309 0c-1.8108 0.0288-3.6147 0.67386-4.9725 1.8848-0.0452-0.44952-0.0906-0.89901-0.13601-1.3485h-8.8425v42.397h9.5042c6.4e-4 -4.0686-1e-3 -8.1433 9.9e-4 -12.208 1.6995 1.3496 3.9783 1.7004 6.0865 1.4527 2.0315-0.1953 4.0019-1.0923 5.4005-2.5926 1.984-2.105 2.9178-4.9704 3.347-7.7783 0.41349-2.6931 0.34595-5.4275 0.30211-8.1427-0.12036-3.0058-0.5233-6.0964-1.9351-8.7952-0.93053-1.7685-2.3955-3.295-4.259-4.0715-1.4096-0.61875-2.9664-0.82605-4.4961-0.79795zm61.917 0c-1.508 0.0343-2.9549 0.7406-3.98 1.8347-0.0288-0.43279-0.0579-0.86557-0.0868-1.2984h-9.0354v31.172h9.5303v-20.124c0.35187-0.96739 1.2198-1.7048 2.2371-1.8754 1.0775-0.19 2.1882-0.0821 3.263 0.0782 0.41864 0.0797 0.83735 0.15896 1.256 0.23848 0.0463-3.1414 0.0901-6.2828 0.13601-9.4242-1.057-0.40668-2.1863-0.62268-3.3202-0.60191zm70.389 0c-2.6612 0.0362-5.4008 0.7304-7.4956 2.4367-2.3174 1.8394-3.6103 4.677-4.1889 7.521-0.57782 2.7226-0.49182 5.5216-0.45741 8.2874 0.10343 3.1982 0.71592 6.4954 2.507 9.2051 1.5266 2.3857 4.1138 3.9743 6.8737 4.5002 2.9257 0.55715 6.0996 0.40687 8.7672-1.0215 3.0378-1.5813 5.1434-4.7173 5.6104-8.0932 0.17375-1.0558 0.16348-2.128 0.17402-3.1944h-9.0509c-0.0662 1.2291 0.0542 2.597-0.69829 3.6528-0.65767 0.78554-1.8128 0.76859-2.7357 0.59535-0.89831-0.14557-1.4118-1.0198-1.5772-1.8451-0.40378-1.6744-0.32568-3.4139-0.35871-5.1232 0.0192-2.1223-0.0779-4.2702 0.32346-6.3653 0.17169-0.90858 0.62751-1.9413 1.6132-2.1815 0.88062-0.22341 2.0038-0.19114 2.584 0.61846 0.7633 1.1125 0.79139 2.5287 0.82887 3.8302 8e-3 0.30441-0.0781 0.70578 0.36329 0.56294h8.7071c0.0228-2.2181-0.1173-4.486-0.93606-6.5719-0.88163-2.3236-2.5531-4.3808-4.7866-5.5167-1.8544-0.98724-3.9822-1.3472-6.0668-1.2972zm-134.02 8.2927c0.82245 4e-3 1.6611 0.40969 2.0211 1.1785 0.60478 1.1581 0.70883 2.4919 0.80614 3.7728 8e-3 0.21101 0.0273 0.50901 0.0337 0.76991 0.0102 2.277 0.10946 4.5711-0.22262 6.8316-0.18951 1.0924-0.54486 2.3538-1.6056 2.9028-0.84463 0.35861-1.8458 0.29614-2.6897-0.0336-0.45445-0.21523-0.86217-0.6046-1.0719-1.0505v-13.032c0.43761-0.87447 1.4064-1.3569 2.3627-1.3429 0.12211-5e-3 0.24409 4.2e-4 0.36619 3e-3z" fill="url(#b)" stroke-width="1.0362" style="font-variation-settings:'wght' 700;white-space:pre"/></g></g></svg>
