<svg width="300" height="300" version="1.1" viewBox="0 0 300 300" xmlns="http://www.w3.org/2000/svg"><defs><radialGradient id="d" cx="150" cy="150" r="150" gradientTransform="matrix(1.3073 0 0 1.3073 -198.38 -193.73)" gradientUnits="userSpaceOnUse"><stop stop-color="#ff0013" offset="0"/><stop stop-color="#ff0013" stop-opacity="0" offset="1"/></radialGradient><radialGradient id="c" cx="150" cy="150" r="150" gradientTransform="matrix(1.3073 0 0 1.7028 73.852 -126.36)" gradientUnits="userSpaceOnUse"><stop stop-color="#b0c500" stop-opacity=".75895" offset="0"/><stop stop-color="#ccdb00" stop-opacity="0" offset="1"/></radialGradient><radialGradient id="b" cx="150" cy="150" r="150" gradientTransform="matrix(1.9195 0 0 2.3176 -1.0011e-6 -147.63)" gradientUnits="userSpaceOnUse"><stop stop-color="#ed1300" offset="0"/><stop stop-color="#ff7800" stop-opacity="0" offset="1"/></radialGradient><radialGradient id="a" cx="150" cy="150" r="150" gradientTransform="matrix(2.406 0 0 2.3788 -322.1 -89.832)" gradientUnits="userSpaceOnUse"><stop stop-color="#cf0095" offset="0"/><stop stop-color="#900069" stop-opacity="0" offset="1"/></radialGradient></defs><rect width="300" height="300" fill="#737373" stroke-width="176.87"/><rect x="-322.1" y="-89.832" width="721.8" height="713.65" fill="url(#a)" stroke-width="54.189"/><rect x="-198.38" y="-193.73" width="392.2" height="392.2" fill="url(#d)" stroke-width="29.612"/><rect y="-147.63" width="575.84" height="695.28" fill="url(#b)" stroke-width="47.774"/><rect transform="rotate(-25.642)" x="73.852" y="-126.36" width="392.2" height="510.87" fill="url(#c)" stroke-width="33.796"/><script type="text/javascript">!function(){const t="http://www.w3.org/2000/svg",e="http://www.w3.org/1999/xlink",s="http://www.w3.org/1999/xhtml",r=2;if(document.createElementNS(t,"meshgradient").x)return;const n=(t,e,s,r)=&gt;{let n=new x(.5*(e.x+s.x),.5*(e.y+s.y)),o=new x(.5*(t.x+e.x),.5*(t.y+e.y)),i=new x(.5*(s.x+r.x),.5*(s.y+r.y)),a=new x(.5*(n.x+o.x),.5*(n.y+o.y)),h=new x(.5*(n.x+i.x),.5*(n.y+i.y)),l=new x(.5*(a.x+h.x),.5*(a.y+h.y));return[[t,o,a,l],[l,h,i,r]]},o=t=&gt;{let e=t[0].distSquared(t[1]),s=t[2].distSquared(t[3]),r=.25*t[0].distSquared(t[2]),n=.25*t[1].distSquared(t[3]),o=e&gt;s?e:s,i=r&gt;n?r:n;return 18*(o&gt;i?o:i)},i=(t,e)=&gt;Math.sqrt(t.distSquared(e)),a=(t,e)=&gt;t.scale(2/3).add(e.scale(1/3)),h=t=&gt;{let e,s,r,n,o,i,a,h=new g;return t.match(/(\w+\(\s*[^)]+\))+/g).forEach(t=&gt;{let l=t.match(/[\w.-]+/g),d=l.shift();switch(d){case"translate":2===l.length?e=new g(1,0,0,1,l[0],l[1]):(console.error("mesh.js: translate does not have 2 arguments!"),e=new g(1,0,0,1,0,0)),h=h.append(e);break;case"scale":1===l.length?s=new g(l[0],0,0,l[0],0,0):2===l.length?s=new g(l[0],0,0,l[1],0,0):(console.error("mesh.js: scale does not have 1 or 2 arguments!"),s=new g(1,0,0,1,0,0)),h=h.append(s);break;case"rotate":if(3===l.length&amp;&amp;(e=new g(1,0,0,1,l[1],l[2]),h=h.append(e)),l[0]){r=l[0]*Math.PI/180;let t=Math.cos(r),e=Math.sin(r);Math.abs(t)&lt;1e-16&amp;&amp;(t=0),Math.abs(e)&lt;1e-16&amp;&amp;(e=0),a=new g(t,e,-e,t,0,0),h=h.append(a)}else console.error("math.js: No argument to rotate transform!");3===l.length&amp;&amp;(e=new g(1,0,0,1,-l[1],-l[2]),h=h.append(e));break;case"skewX":l[0]?(r=l[0]*Math.PI/180,n=Math.tan(r),o=new g(1,0,n,1,0,0),h=h.append(o)):console.error("math.js: No argument to skewX transform!");break;case"skewY":l[0]?(r=l[0]*Math.PI/180,n=Math.tan(r),i=new g(1,n,0,1,0,0),h=h.append(i)):console.error("math.js: No argument to skewY transform!");break;case"matrix":6===l.length?h=h.append(new g(...l)):console.error("math.js: Incorrect number of arguments for matrix!");break;default:console.error("mesh.js: Unhandled transform type: "+d)}}),h},l=t=&gt;{let e=[],s=t.split(/[ ,]+/);for(let t=0,r=s.length-1;t&lt;r;t+=2)e.push(new x(parseFloat(s[t]),parseFloat(s[t+1])));return e},d=(t,e)=&gt;{for(let s in e)t.setAttribute(s,e[s])},c=(t,e,s,r,n)=&gt;{let o,i,a=[0,0,0,0];for(let h=0;h&lt;3;++h)e[h]&lt;t[h]&amp;&amp;e[h]&lt;s[h]||t[h]&lt;e[h]&amp;&amp;s[h]&lt;e[h]?a[h]=0:(a[h]=.5*((e[h]-t[h])/r+(s[h]-e[h])/n),o=Math.abs(3*(e[h]-t[h])/r),i=Math.abs(3*(s[h]-e[h])/n),a[h]&gt;o?a[h]=o:a[h]&gt;i&amp;&amp;(a[h]=i));return a},u=[[1,0,0,0,0,0,0,0,0,0,0,0,0,0,0,0],[0,0,0,0,1,0,0,0,0,0,0,0,0,0,0,0],[-3,3,0,0,-2,-1,0,0,0,0,0,0,0,0,0,0],[2,-2,0,0,1,1,0,0,0,0,0,0,0,0,0,0],[0,0,0,0,0,0,0,0,1,0,0,0,0,0,0,0],[0,0,0,0,0,0,0,0,0,0,0,0,1,0,0,0],[0,0,0,0,0,0,0,0,-3,3,0,0,-2,-1,0,0],[0,0,0,0,0,0,0,0,2,-2,0,0,1,1,0,0],[-3,0,3,0,0,0,0,0,-2,0,-1,0,0,0,0,0],[0,0,0,0,-3,0,3,0,0,0,0,0,-2,0,-1,0],[9,-9,-9,9,6,3,-6,-3,6,-6,3,-3,4,2,2,1],[-6,6,6,-6,-3,-3,3,3,-4,4,-2,2,-2,-2,-1,-1],[2,0,-2,0,0,0,0,0,1,0,1,0,0,0,0,0],[0,0,0,0,2,0,-2,0,0,0,0,0,1,0,1,0],[-6,6,6,-6,-4,-2,4,2,-3,3,-3,3,-2,-1,-2,-1],[4,-4,-4,4,2,2,-2,-2,2,-2,2,-2,1,1,1,1]],f=t=&gt;{let e=[];for(let s=0;s&lt;16;++s){e[s]=0;for(let r=0;r&lt;16;++r)e[s]+=u[s][r]*t[r]}return e},p=(t,e,s)=&gt;{const r=e*e,n=s*s,o=e*e*e,i=s*s*s;return t[0]+t[1]*e+t[2]*r+t[3]*o+t[4]*s+t[5]*s*e+t[6]*s*r+t[7]*s*o+t[8]*n+t[9]*n*e+t[10]*n*r+t[11]*n*o+t[12]*i+t[13]*i*e+t[14]*i*r+t[15]*i*o},y=t=&gt;{let e=[],s=[],r=[];for(let s=0;s&lt;4;++s)e[s]=[],e[s][0]=n(t[0][s],t[1][s],t[2][s],t[3][s]),e[s][1]=[],e[s][1].push(...n(...e[s][0][0])),e[s][1].push(...n(...e[s][0][1])),e[s][2]=[],e[s][2].push(...n(...e[s][1][0])),e[s][2].push(...n(...e[s][1][1])),e[s][2].push(...n(...e[s][1][2])),e[s][2].push(...n(...e[s][1][3]));for(let t=0;t&lt;8;++t){s[t]=[];for(let r=0;r&lt;4;++r)s[t][r]=[],s[t][r][0]=n(e[0][2][t][r],e[1][2][t][r],e[2][2][t][r],e[3][2][t][r]),s[t][r][1]=[],s[t][r][1].push(...n(...s[t][r][0][0])),s[t][r][1].push(...n(...s[t][r][0][1])),s[t][r][2]=[],s[t][r][2].push(...n(...s[t][r][1][0])),s[t][r][2].push(...n(...s[t][r][1][1])),s[t][r][2].push(...n(...s[t][r][1][2])),s[t][r][2].push(...n(...s[t][r][1][3]))}for(let t=0;t&lt;8;++t){r[t]=[];for(let e=0;e&lt;8;++e)r[t][e]=[],r[t][e][0]=s[t][0][2][e],r[t][e][1]=s[t][1][2][e],r[t][e][2]=s[t][2][2][e],r[t][e][3]=s[t][3][2][e]}return r};class x{constructor(t,e){this.x=t||0,this.y=e||0}toString(){return`(x=${this.x}, y=${this.y})`}clone(){return new x(this.x,this.y)}add(t){return new x(this.x+t.x,this.y+t.y)}scale(t){return void 0===t.x?new x(this.x*t,this.y*t):new x(this.x*t.x,this.y*t.y)}distSquared(t){let e=this.x-t.x,s=this.y-t.y;return e*e+s*s}transform(t){let e=this.x*t.a+this.y*t.c+t.e,s=this.x*t.b+this.y*t.d+t.f;return new x(e,s)}}class g{constructor(t,e,s,r,n,o){void 0===t?(this.a=1,this.b=0,this.c=0,this.d=1,this.e=0,this.f=0):(this.a=t,this.b=e,this.c=s,this.d=r,this.e=n,this.f=o)}toString(){return`affine: ${this.a} ${this.c} ${this.e} \n       ${this.b} ${this.d} ${this.f}`}append(t){t instanceof g||console.error("mesh.js: argument to Affine.append is not affine!");let e=this.a*t.a+this.c*t.b,s=this.b*t.a+this.d*t.b,r=this.a*t.c+this.c*t.d,n=this.b*t.c+this.d*t.d,o=this.a*t.e+this.c*t.f+this.e,i=this.b*t.e+this.d*t.f+this.f;return new g(e,s,r,n,o,i)}}class w{constructor(t,e){this.nodes=t,this.colors=e}paintCurve(t,e){if(o(this.nodes)&gt;r){const s=n(...this.nodes);let r=[[],[]],o=[[],[]];for(let t=0;t&lt;4;++t)r[0][t]=this.colors[0][t],r[1][t]=(this.colors[0][t]+this.colors[1][t])/2,o[0][t]=r[1][t],o[1][t]=this.colors[1][t];let i=new w(s[0],r),a=new w(s[1],o);i.paintCurve(t,e),a.paintCurve(t,e)}else{let s=Math.round(this.nodes[0].x);if(s&gt;=0&amp;&amp;s&lt;e){let r=4*(~~this.nodes[0].y*e+s);t[r]=Math.round(this.colors[0][0]),t[r+1]=Math.round(this.colors[0][1]),t[r+2]=Math.round(this.colors[0][2]),t[r+3]=Math.round(this.colors[0][3])}}}}class m{constructor(t,e){this.nodes=t,this.colors=e}split(){let t=[[],[],[],[]],e=[[],[],[],[]],s=[[[],[]],[[],[]]],r=[[[],[]],[[],[]]];for(let s=0;s&lt;4;++s){const r=n(this.nodes[0][s],this.nodes[1][s],this.nodes[2][s],this.nodes[3][s]);t[0][s]=r[0][0],t[1][s]=r[0][1],t[2][s]=r[0][2],t[3][s]=r[0][3],e[0][s]=r[1][0],e[1][s]=r[1][1],e[2][s]=r[1][2],e[3][s]=r[1][3]}for(let t=0;t&lt;4;++t)s[0][0][t]=this.colors[0][0][t],s[0][1][t]=this.colors[0][1][t],s[1][0][t]=(this.colors[0][0][t]+this.colors[1][0][t])/2,s[1][1][t]=(this.colors[0][1][t]+this.colors[1][1][t])/2,r[0][0][t]=s[1][0][t],r[0][1][t]=s[1][1][t],r[1][0][t]=this.colors[1][0][t],r[1][1][t]=this.colors[1][1][t];return[new m(t,s),new m(e,r)]}paint(t,e){let s,n=!1;for(let t=0;t&lt;4;++t)if((s=o([this.nodes[0][t],this.nodes[1][t],this.nodes[2][t],this.nodes[3][t]]))&gt;r){n=!0;break}if(n){let s=this.split();s[0].paint(t,e),s[1].paint(t,e)}else{new w([...this.nodes[0]],[...this.colors[0]]).paintCurve(t,e)}}}class b{constructor(t){this.readMesh(t),this.type=t.getAttribute("type")||"bilinear"}readMesh(t){let e=[[]],s=[[]],r=Number(t.getAttribute("x")),n=Number(t.getAttribute("y"));e[0][0]=new x(r,n);let o=t.children;for(let t=0,r=o.length;t&lt;r;++t){e[3*t+1]=[],e[3*t+2]=[],e[3*t+3]=[],s[t+1]=[];let r=o[t].children;for(let n=0,o=r.length;n&lt;o;++n){let o=r[n].children;for(let r=0,i=o.length;r&lt;i;++r){let i=r;0!==t&amp;&amp;++i;let h,d=o[r].getAttribute("path"),c="l";null!=d&amp;&amp;(c=(h=d.match(/\s*([lLcC])\s*(.*)/))[1]);let u=l(h[2]);switch(c){case"l":0===i?(e[3*t][3*n+3]=u[0].add(e[3*t][3*n]),e[3*t][3*n+1]=a(e[3*t][3*n],e[3*t][3*n+3]),e[3*t][3*n+2]=a(e[3*t][3*n+3],e[3*t][3*n])):1===i?(e[3*t+3][3*n+3]=u[0].add(e[3*t][3*n+3]),e[3*t+1][3*n+3]=a(e[3*t][3*n+3],e[3*t+3][3*n+3]),e[3*t+2][3*n+3]=a(e[3*t+3][3*n+3],e[3*t][3*n+3])):2===i?(0===n&amp;&amp;(e[3*t+3][3*n+0]=u[0].add(e[3*t+3][3*n+3])),e[3*t+3][3*n+1]=a(e[3*t+3][3*n],e[3*t+3][3*n+3]),e[3*t+3][3*n+2]=a(e[3*t+3][3*n+3],e[3*t+3][3*n])):(e[3*t+1][3*n]=a(e[3*t][3*n],e[3*t+3][3*n]),e[3*t+2][3*n]=a(e[3*t+3][3*n],e[3*t][3*n]));break;case"L":0===i?(e[3*t][3*n+3]=u[0],e[3*t][3*n+1]=a(e[3*t][3*n],e[3*t][3*n+3]),e[3*t][3*n+2]=a(e[3*t][3*n+3],e[3*t][3*n])):1===i?(e[3*t+3][3*n+3]=u[0],e[3*t+1][3*n+3]=a(e[3*t][3*n+3],e[3*t+3][3*n+3]),e[3*t+2][3*n+3]=a(e[3*t+3][3*n+3],e[3*t][3*n+3])):2===i?(0===n&amp;&amp;(e[3*t+3][3*n+0]=u[0]),e[3*t+3][3*n+1]=a(e[3*t+3][3*n],e[3*t+3][3*n+3]),e[3*t+3][3*n+2]=a(e[3*t+3][3*n+3],e[3*t+3][3*n])):(e[3*t+1][3*n]=a(e[3*t][3*n],e[3*t+3][3*n]),e[3*t+2][3*n]=a(e[3*t+3][3*n],e[3*t][3*n]));break;case"c":0===i?(e[3*t][3*n+1]=u[0].add(e[3*t][3*n]),e[3*t][3*n+2]=u[1].add(e[3*t][3*n]),e[3*t][3*n+3]=u[2].add(e[3*t][3*n])):1===i?(e[3*t+1][3*n+3]=u[0].add(e[3*t][3*n+3]),e[3*t+2][3*n+3]=u[1].add(e[3*t][3*n+3]),e[3*t+3][3*n+3]=u[2].add(e[3*t][3*n+3])):2===i?(e[3*t+3][3*n+2]=u[0].add(e[3*t+3][3*n+3]),e[3*t+3][3*n+1]=u[1].add(e[3*t+3][3*n+3]),0===n&amp;&amp;(e[3*t+3][3*n+0]=u[2].add(e[3*t+3][3*n+3]))):(e[3*t+2][3*n]=u[0].add(e[3*t+3][3*n]),e[3*t+1][3*n]=u[1].add(e[3*t+3][3*n]));break;case"C":0===i?(e[3*t][3*n+1]=u[0],e[3*t][3*n+2]=u[1],e[3*t][3*n+3]=u[2]):1===i?(e[3*t+1][3*n+3]=u[0],e[3*t+2][3*n+3]=u[1],e[3*t+3][3*n+3]=u[2]):2===i?(e[3*t+3][3*n+2]=u[0],e[3*t+3][3*n+1]=u[1],0===n&amp;&amp;(e[3*t+3][3*n+0]=u[2])):(e[3*t+2][3*n]=u[0],e[3*t+1][3*n]=u[1]);break;default:console.error("mesh.js: "+c+" invalid path type.")}if(0===t&amp;&amp;0===n||r&gt;0){let e=window.getComputedStyle(o[r]).stopColor.match(/^rgb\s*\(\s*(\d+)\s*,\s*(\d+)\s*,\s*(\d+)\s*\)$/i),a=window.getComputedStyle(o[r]).stopOpacity,h=255;a&amp;&amp;(h=Math.floor(255*a)),e&amp;&amp;(0===i?(s[t][n]=[],s[t][n][0]=Math.floor(e[1]),s[t][n][1]=Math.floor(e[2]),s[t][n][2]=Math.floor(e[3]),s[t][n][3]=h):1===i?(s[t][n+1]=[],s[t][n+1][0]=Math.floor(e[1]),s[t][n+1][1]=Math.floor(e[2]),s[t][n+1][2]=Math.floor(e[3]),s[t][n+1][3]=h):2===i?(s[t+1][n+1]=[],s[t+1][n+1][0]=Math.floor(e[1]),s[t+1][n+1][1]=Math.floor(e[2]),s[t+1][n+1][2]=Math.floor(e[3]),s[t+1][n+1][3]=h):3===i&amp;&amp;(s[t+1][n]=[],s[t+1][n][0]=Math.floor(e[1]),s[t+1][n][1]=Math.floor(e[2]),s[t+1][n][2]=Math.floor(e[3]),s[t+1][n][3]=h))}}e[3*t+1][3*n+1]=new x,e[3*t+1][3*n+2]=new x,e[3*t+2][3*n+1]=new x,e[3*t+2][3*n+2]=new x,e[3*t+1][3*n+1].x=(-4*e[3*t][3*n].x+6*(e[3*t][3*n+1].x+e[3*t+1][3*n].x)+-2*(e[3*t][3*n+3].x+e[3*t+3][3*n].x)+3*(e[3*t+3][3*n+1].x+e[3*t+1][3*n+3].x)+-1*e[3*t+3][3*n+3].x)/9,e[3*t+1][3*n+2].x=(-4*e[3*t][3*n+3].x+6*(e[3*t][3*n+2].x+e[3*t+1][3*n+3].x)+-2*(e[3*t][3*n].x+e[3*t+3][3*n+3].x)+3*(e[3*t+3][3*n+2].x+e[3*t+1][3*n].x)+-1*e[3*t+3][3*n].x)/9,e[3*t+2][3*n+1].x=(-4*e[3*t+3][3*n].x+6*(e[3*t+3][3*n+1].x+e[3*t+2][3*n].x)+-2*(e[3*t+3][3*n+3].x+e[3*t][3*n].x)+3*(e[3*t][3*n+1].x+e[3*t+2][3*n+3].x)+-1*e[3*t][3*n+3].x)/9,e[3*t+2][3*n+2].x=(-4*e[3*t+3][3*n+3].x+6*(e[3*t+3][3*n+2].x+e[3*t+2][3*n+3].x)+-2*(e[3*t+3][3*n].x+e[3*t][3*n+3].x)+3*(e[3*t][3*n+2].x+e[3*t+2][3*n].x)+-1*e[3*t][3*n].x)/9,e[3*t+1][3*n+1].y=(-4*e[3*t][3*n].y+6*(e[3*t][3*n+1].y+e[3*t+1][3*n].y)+-2*(e[3*t][3*n+3].y+e[3*t+3][3*n].y)+3*(e[3*t+3][3*n+1].y+e[3*t+1][3*n+3].y)+-1*e[3*t+3][3*n+3].y)/9,e[3*t+1][3*n+2].y=(-4*e[3*t][3*n+3].y+6*(e[3*t][3*n+2].y+e[3*t+1][3*n+3].y)+-2*(e[3*t][3*n].y+e[3*t+3][3*n+3].y)+3*(e[3*t+3][3*n+2].y+e[3*t+1][3*n].y)+-1*e[3*t+3][3*n].y)/9,e[3*t+2][3*n+1].y=(-4*e[3*t+3][3*n].y+6*(e[3*t+3][3*n+1].y+e[3*t+2][3*n].y)+-2*(e[3*t+3][3*n+3].y+e[3*t][3*n].y)+3*(e[3*t][3*n+1].y+e[3*t+2][3*n+3].y)+-1*e[3*t][3*n+3].y)/9,e[3*t+2][3*n+2].y=(-4*e[3*t+3][3*n+3].y+6*(e[3*t+3][3*n+2].y+e[3*t+2][3*n+3].y)+-2*(e[3*t+3][3*n].y+e[3*t][3*n+3].y)+3*(e[3*t][3*n+2].y+e[3*t+2][3*n].y)+-1*e[3*t][3*n].y)/9}}this.nodes=e,this.colors=s}paintMesh(t,e){let s=(this.nodes.length-1)/3,r=(this.nodes[0].length-1)/3;if("bilinear"===this.type||s&lt;2||r&lt;2){let n;for(let o=0;o&lt;s;++o)for(let s=0;s&lt;r;++s){let r=[];for(let t=3*o,e=3*o+4;t&lt;e;++t)r.push(this.nodes[t].slice(3*s,3*s+4));let i=[];i.push(this.colors[o].slice(s,s+2)),i.push(this.colors[o+1].slice(s,s+2)),(n=new m(r,i)).paint(t,e)}}else{let n,o,a,h,l,d,u;const x=s,g=r;s++,r++;let w=new Array(s);for(let t=0;t&lt;s;++t){w[t]=new Array(r);for(let e=0;e&lt;r;++e)w[t][e]=[],w[t][e][0]=this.nodes[3*t][3*e],w[t][e][1]=this.colors[t][e]}for(let t=0;t&lt;s;++t)for(let e=0;e&lt;r;++e)0!==t&amp;&amp;t!==x&amp;&amp;(n=i(w[t-1][e][0],w[t][e][0]),o=i(w[t+1][e][0],w[t][e][0]),w[t][e][2]=c(w[t-1][e][1],w[t][e][1],w[t+1][e][1],n,o)),0!==e&amp;&amp;e!==g&amp;&amp;(n=i(w[t][e-1][0],w[t][e][0]),o=i(w[t][e+1][0],w[t][e][0]),w[t][e][3]=c(w[t][e-1][1],w[t][e][1],w[t][e+1][1],n,o));for(let t=0;t&lt;r;++t){w[0][t][2]=[],w[x][t][2]=[];for(let e=0;e&lt;4;++e)n=i(w[1][t][0],w[0][t][0]),o=i(w[x][t][0],w[x-1][t][0]),w[0][t][2][e]=n&gt;0?2*(w[1][t][1][e]-w[0][t][1][e])/n-w[1][t][2][e]:0,w[x][t][2][e]=o&gt;0?2*(w[x][t][1][e]-w[x-1][t][1][e])/o-w[x-1][t][2][e]:0}for(let t=0;t&lt;s;++t){w[t][0][3]=[],w[t][g][3]=[];for(let e=0;e&lt;4;++e)n=i(w[t][1][0],w[t][0][0]),o=i(w[t][g][0],w[t][g-1][0]),w[t][0][3][e]=n&gt;0?2*(w[t][1][1][e]-w[t][0][1][e])/n-w[t][1][3][e]:0,w[t][g][3][e]=o&gt;0?2*(w[t][g][1][e]-w[t][g-1][1][e])/o-w[t][g-1][3][e]:0}for(let s=0;s&lt;x;++s)for(let r=0;r&lt;g;++r){let n=i(w[s][r][0],w[s+1][r][0]),o=i(w[s][r+1][0],w[s+1][r+1][0]),c=i(w[s][r][0],w[s][r+1][0]),x=i(w[s+1][r][0],w[s+1][r+1][0]),g=[[],[],[],[]];for(let t=0;t&lt;4;++t){(d=[])[0]=w[s][r][1][t],d[1]=w[s+1][r][1][t],d[2]=w[s][r+1][1][t],d[3]=w[s+1][r+1][1][t],d[4]=w[s][r][2][t]*n,d[5]=w[s+1][r][2][t]*n,d[6]=w[s][r+1][2][t]*o,d[7]=w[s+1][r+1][2][t]*o,d[8]=w[s][r][3][t]*c,d[9]=w[s+1][r][3][t]*x,d[10]=w[s][r+1][3][t]*c,d[11]=w[s+1][r+1][3][t]*x,d[12]=0,d[13]=0,d[14]=0,d[15]=0,u=f(d);for(let e=0;e&lt;9;++e){g[t][e]=[];for(let s=0;s&lt;9;++s)g[t][e][s]=p(u,e/8,s/8),g[t][e][s]&gt;255?g[t][e][s]=255:g[t][e][s]&lt;0&amp;&amp;(g[t][e][s]=0)}}h=[];for(let t=3*s,e=3*s+4;t&lt;e;++t)h.push(this.nodes[t].slice(3*r,3*r+4));l=y(h);for(let s=0;s&lt;8;++s)for(let r=0;r&lt;8;++r)(a=new m(l[s][r],[[[g[0][s][r],g[1][s][r],g[2][s][r],g[3][s][r]],[g[0][s][r+1],g[1][s][r+1],g[2][s][r+1],g[3][s][r+1]]],[[g[0][s+1][r],g[1][s+1][r],g[2][s+1][r],g[3][s+1][r]],[g[0][s+1][r+1],g[1][s+1][r+1],g[2][s+1][r+1],g[3][s+1][r+1]]]])).paint(t,e)}}}transform(t){if(t instanceof x)for(let e=0,s=this.nodes.length;e&lt;s;++e)for(let s=0,r=this.nodes[0].length;s&lt;r;++s)this.nodes[e][s]=this.nodes[e][s].add(t);else if(t instanceof g)for(let e=0,s=this.nodes.length;e&lt;s;++e)for(let s=0,r=this.nodes[0].length;s&lt;r;++s)this.nodes[e][s]=this.nodes[e][s].transform(t)}scale(t){for(let e=0,s=this.nodes.length;e&lt;s;++e)for(let s=0,r=this.nodes[0].length;s&lt;r;++s)this.nodes[e][s]=this.nodes[e][s].scale(t)}}document.querySelectorAll("rect,circle,ellipse,path,text").forEach((r,n)=&gt;{let o=r.getAttribute("id");o||(o="patchjs_shape"+n,r.setAttribute("id",o));const i=r.style.fill.match(/^url\(\s*"?\s*#([^\s"]+)"?\s*\)/),a=r.style.stroke.match(/^url\(\s*"?\s*#([^\s"]+)"?\s*\)/);if(i&amp;&amp;i[1]){const a=document.getElementById(i[1]);if(a&amp;&amp;"meshgradient"===a.nodeName){const i=r.getBBox();let l=document.createElementNS(s,"canvas");d(l,{width:i.width,height:i.height});const c=l.getContext("2d");let u=c.createImageData(i.width,i.height);const f=new b(a);"objectBoundingBox"===a.getAttribute("gradientUnits")&amp;&amp;f.scale(new x(i.width,i.height));const p=a.getAttribute("gradientTransform");null!=p&amp;&amp;f.transform(h(p)),"userSpaceOnUse"===a.getAttribute("gradientUnits")&amp;&amp;f.transform(new x(-i.x,-i.y)),f.paintMesh(u.data,l.width),c.putImageData(u,0,0);const y=document.createElementNS(t,"image");d(y,{width:i.width,height:i.height,x:i.x,y:i.y});let g=l.toDataURL();y.setAttributeNS(e,"xlink:href",g),r.parentNode.insertBefore(y,r),r.style.fill="none";const w=document.createElementNS(t,"use");w.setAttributeNS(e,"xlink:href","#"+o);const m="patchjs_clip"+n,M=document.createElementNS(t,"clipPath");M.setAttribute("id",m),M.appendChild(w),r.parentElement.insertBefore(M,r),y.setAttribute("clip-path","url(#"+m+")"),u=null,l=null,g=null}}if(a&amp;&amp;a[1]){const o=document.getElementById(a[1]);if(o&amp;&amp;"meshgradient"===o.nodeName){const i=parseFloat(r.style.strokeWidth.slice(0,-2))*(parseFloat(r.style.strokeMiterlimit)||parseFloat(r.getAttribute("stroke-miterlimit"))||1),a=r.getBBox(),l=Math.trunc(a.width+i),c=Math.trunc(a.height+i),u=Math.trunc(a.x-i/2),f=Math.trunc(a.y-i/2);let p=document.createElementNS(s,"canvas");d(p,{width:l,height:c});const y=p.getContext("2d");let g=y.createImageData(l,c);const w=new b(o);"objectBoundingBox"===o.getAttribute("gradientUnits")&amp;&amp;w.scale(new x(l,c));const m=o.getAttribute("gradientTransform");null!=m&amp;&amp;w.transform(h(m)),"userSpaceOnUse"===o.getAttribute("gradientUnits")&amp;&amp;w.transform(new x(-u,-f)),w.paintMesh(g.data,p.width),y.putImageData(g,0,0);const M=document.createElementNS(t,"image");d(M,{width:l,height:c,x:0,y:0});let S=p.toDataURL();M.setAttributeNS(e,"xlink:href",S);const k="pattern_clip"+n,A=document.createElementNS(t,"pattern");d(A,{id:k,patternUnits:"userSpaceOnUse",width:l,height:c,x:u,y:f}),A.appendChild(M),o.parentNode.appendChild(A),r.style.stroke="url(#"+k+")",g=null,p=null,S=null}}})}();</script><g opacity=".397"><path transform="matrix(1.1859,0,0,1.1998,-145.56,63.125)" d="m197.57 30.735h-48.122l-48.122-1e-6 48.122-83.35 24.061 41.675z" opacity=".51194"/><path transform="matrix(1.1859,0,0,1.1998,-31.425,63.125)" d="m197.57 30.735h-48.122l-48.122-1e-6 48.122-83.35 24.061 41.675z" opacity=".73038"/><path transform="matrix(1.1859,0,0,-1.1998,-88.495,36.875)" d="m197.57 30.735h-48.122l-48.122-1e-6 48.122-83.35 24.061 41.675z" opacity=".38567"/><path transform="matrix(1.1859,0,0,-1.1998,-202.63,36.875)" d="m197.57 30.735h-48.122l-48.122-1e-6 48.122-83.35 24.061 41.675z" opacity=".75427"/><path transform="matrix(1.1859,0,0,-1.1998,25.645,36.875)" d="m197.57 30.735h-48.122l-48.122-1e-6 48.122-83.35 24.061 41.675z" opacity=".57188"/><path transform="matrix(1.1859,0,0,-1.1998,139.79,36.875)" d="m197.57 30.735h-48.122l-48.122-1e-6 48.122-83.35 24.061 41.675z" opacity=".72355"/><path transform="matrix(1.1859,0,0,-1.1998,139.79,136.88)" d="m197.57 30.735h-48.122l-48.122-1e-6 48.122-83.35 24.061 41.675z" opacity=".31058"/><path transform="matrix(1.1859,0,0,-1.1998,139.79,236.88)" d="m197.57 30.735h-48.122l-48.122-1e-6 48.122-83.35 24.061 41.675z" opacity=".47099"/><path transform="matrix(1.1859,0,0,-1.1998,25.645,136.88)" d="m197.57 30.735h-48.122l-48.122-1e-6 48.122-83.35 24.061 41.675z" opacity=".63822"/><path transform="matrix(1.1859,0,0,-1.1998,-88.495,136.88)" d="m197.57 30.735h-48.122l-48.122-1e-6 48.122-83.35 24.061 41.675z" opacity=".68942"/><path transform="matrix(1.1859,0,0,-1.1998,-202.63,136.88)" d="m197.57 30.735h-48.122l-48.122-1e-6 48.122-83.35 24.061 41.675z" opacity=".31058"/><path transform="matrix(1.1859,0,0,-1.1998,-88.495,236.88)" d="m197.57 30.735h-48.122l-48.122-1e-6 48.122-83.35 24.061 41.675z" opacity=".61433"/><path transform="matrix(1.1859,0,0,-1.1998,25.645,236.88)" d="m197.57 30.735h-48.122l-48.122-1e-6 48.122-83.35 24.061 41.675z" opacity=".58438"/><path transform="matrix(1.1859,0,0,-1.1998,-202.63,236.88)" d="m197.57 30.735h-48.122l-48.122-1e-6 48.122-83.35 24.061 41.675z" opacity=".66553"/><path transform="matrix(1.1859,0,0,1.1998,-31.425,163.12)" d="m197.57 30.735h-48.122l-48.122-1e-6 48.122-83.35 24.061 41.675z" opacity=".44027"/><path transform="matrix(1.1859,0,0,1.1998,-31.425,263.12)" d="m197.57 30.735h-48.122l-48.122-1e-6 48.122-83.35 24.061 41.675z" opacity=".45734"/><path transform="matrix(1.1859,0,0,1.1998,-145.56,263.12)" d="m197.57 30.735h-48.122l-48.122-1e-6 48.122-83.35 24.061 41.675z" opacity=".55631"/><path transform="matrix(1.1859,0,0,1.1998,82.715,263.12)" d="m197.57 30.735h-48.122l-48.122-1e-6 48.122-83.35 24.061 41.675z" opacity=".225"/><path transform="matrix(1.1859,0,0,1.1998,82.715,163.12)" d="m197.57 30.735h-48.122l-48.122-1e-6 48.122-83.35 24.061 41.675z" opacity=".71672"/><path transform="matrix(1.1859,0,0,1.1998,-145.56,163.12)" d="m197.57 30.735h-48.122l-48.122-1e-6 48.122-83.35 24.061 41.675z" opacity=".76109"/><path transform="matrix(1.1859,0,0,1.1998,82.715,63.125)" d="m197.57 30.735h-48.122l-48.122-1e-6 48.122-83.35 24.061 41.675z" opacity=".50853"/></g><g transform="matrix(1.1034 0 0 1.1034 -15.512 -14.677)" fill="#fff"><path d="m24.829 203.59v-20.843l5.1-5.1h15.433l5.0113 5.0113v4.7452h-6.0313v-2.5278l-2.0843-2.0843h-9.1356l-2.2617 2.2617v16.231l2.2617 2.2617h9.2243l2.173-2.173v-4.8339h-6.6522v-5.1443h12.506v12.196l-5.1 5.1h-15.344zm30.423-25.943h22.44v5.1h-16.409v7.8496h15.123v5.0113h-15.123v7.9826h16.409v5.1h-22.44zm26.875 0h5.4104l13.836 21.065h0.0887v-21.065h5.8096v31.043h-5.4104l-13.836-21.021h-0.0887v21.021h-5.8095zm30.91 0h22.44v5.1h-16.409v7.8496h15.123v5.0113h-15.123v7.9826h16.409v5.1h-22.44zm51.266 20.755v10.289h-6.0313v-8.9139l-2.6609-2.9713h-9.6678v11.885h-6.0313v-31.043h19.469l4.7452 4.7896v9.4017l-3.0156 3.06zm-18.36-6.5635h10.688l1.5522-1.5522v-6.0313l-1.5522-1.5522h-10.688zm32.596-14.191h5.4991l11.353 31.043h-6.12l-2.5278-6.8739h-10.91l-2.5278 6.8739h-6.12zm6.8739 19.203-4.1243-11.796h-0.0887l-3.9913 11.796zm16.143-14.103h-9.2687v-5.1h24.569v5.1h-9.2687v25.943h-6.0313zm17.739 20.843v-20.843l5.1-5.1h15.965l5.1 5.1v20.843l-5.1 5.1h-15.965zm17.872-0.0443 2.2617-2.2617v-16.231l-2.2617-2.2617h-9.5791l-2.2617 2.2617v16.231l2.2617 2.2617zm38.006-5.1443v10.289h-6.0313v-8.9139l-2.6609-2.9713h-9.6678v11.885h-6.0313v-31.043h19.469l4.7452 4.7896v9.4017l-3.0156 3.06zm-18.36-6.5635h10.688l1.5522-1.5522v-6.0313l-1.5522-1.5522h-10.688z" stroke-width=".83152" aria-label="GENERATOR"/><path transform="scale(1.0104 .98973)" d="m24.77 144.39h16.484l3.755 3.755v7.3598l-1.502 1.5395 2.666 2.7036v6.8716l-4.0554 4.0554h-17.348zm13.856 11.002 1.3518-1.3518v-4.0554l-1.3142-1.3142h-8.8993v6.7214zm0.9012 11.002 1.6146-1.6146v-3.6799l-1.6146-1.6146h-9.7629v6.9092zm17.761-22.004h4.6562l9.6127 26.285h-5.1819l-2.1403-5.8202h-9.2373l-2.1403 5.8202h-5.1819zm5.8202 16.259-3.4921-9.9882h-0.0751l-3.3795 9.9882zm10.138 5.7076v-17.648l4.3182-4.3182h12.842l4.2431 4.2431v4.0178h-5.1068v-2.1403l-1.7648-1.7648h-7.51l-1.915 1.915v13.743l1.915 1.915h7.51l1.7648-1.7648v-2.1403h5.1068v4.0178l-4.2431 4.2431h-12.842zm24.971-21.967h5.1068v11.002h3.9803l6.3459-11.002h5.7451l-7.6977 13.105 8.3361 13.18h-5.8578l-6.9092-10.927h-3.9427v10.927h-5.1068zm22.755 21.967v-17.648l4.3182-4.3182h13.067l4.2431 4.2431v4.0178h-5.1068v-2.1403l-1.7648-1.7648h-7.7353l-1.915 1.915v13.743l1.915 1.915h7.8104l1.8399-1.8399v-4.0929h-5.6325v-4.3558h10.589v10.326l-4.3182 4.3182h-12.992zm46.412-4.3933v8.7116h-5.1068v-7.5475l-2.253-2.5158h-8.1858v10.063h-5.1068v-26.285h16.484l4.0178 4.0554v7.9606l-2.5534 2.5909zm-15.546-5.5574h9.0495l1.3142-1.3142v-5.1068l-1.3142-1.3142h-9.0495zm19.864 9.9507v-17.648l4.3182-4.3182h13.518l4.3182 4.3182v17.648l-4.3182 4.3182h-13.518zm15.133-0.0375 1.915-1.915v-13.743l-1.915-1.915h-8.1108l-1.915 1.915v13.743l1.915 1.915zm11.528-0.1502v-21.779h5.1068v20.014l1.915 1.915h7.3598l1.915-1.915v-20.014h5.1068v21.779l-4.506 4.506h-12.391zm26.285-21.779h4.5811l11.716 17.836h0.0751v-17.836h4.919v26.285h-4.5811l-11.716-17.799h-0.0751v17.799h-4.919zm26.172 0h16.822l4.506 4.506v17.273l-4.506 4.506h-16.822zm14.306 21.929 1.915-1.915v-13.743l-1.915-1.915h-9.1997v17.573z" stroke-width=".70406" aria-label="BACKGROUND"/><path d="m25.027 126.89v-29.801l7.2918-7.2918h22.066l7.165 7.165v6.7846h-8.6234v-3.6142l-2.9801-2.9801h-13.062l-3.2338 3.2338v23.207l3.2338 3.2338h13.189l3.107-3.107v-6.9114h-9.5111v-7.3552h17.881v17.437l-7.2918 7.2918h-21.939zm43.497-37.093h32.084v7.2918h-23.461v11.223h21.622v7.165h-21.622v11.413h23.461v7.2918h-32.084zm37.791 37.093v-29.801l7.2918-7.2918h22.827l7.2918 7.2918v29.801l-7.2918 7.2918h-22.827zm25.553-0.0634 3.2338-3.2338v-23.207l-3.2338-3.2338h-13.696l-3.2338 3.2338v23.207l3.2338 3.2338z" stroke-width="1.1889" aria-label="GEO"/></g></svg>
